<svg width="46" height="46" viewBox="0 0 46 46" fill="none" xmlns="http://www.w3.org/2000/svg">
<path d="M28.75 14.375C28.75 13.9938 28.9014 13.6281 29.171 13.3585C29.4406 13.089 29.8063 12.9375 30.1875 12.9375H41.6875C42.0687 12.9375 42.4344 13.089 42.704 13.3585C42.9735 13.6281 43.125 13.9938 43.125 14.375C43.125 14.7562 42.9735 15.1219 42.704 15.3915C42.4344 15.661 42.0687 15.8125 41.6875 15.8125H30.1875C29.8063 15.8125 29.4406 15.661 29.171 15.3915C28.9014 15.1219 28.75 14.7562 28.75 14.375ZM44.5625 27.3125C44.5625 27.6937 44.411 28.0594 44.1415 28.329C43.8719 28.5986 43.5062 28.75 43.125 28.75H30.3672C30.6888 29.9832 31.4098 31.0752 32.4175 31.8554C33.4253 32.6356 34.663 33.0601 35.9375 33.0625C36.6929 33.0662 37.4413 32.9186 38.1387 32.6285C38.8362 32.3385 39.4685 31.9117 39.9984 31.3734C40.2679 31.1046 40.633 30.9536 41.0137 30.9536C41.3943 30.9536 41.7594 31.1046 42.0289 31.3734C42.1642 31.5056 42.2717 31.6636 42.3451 31.8379C42.4185 32.0123 42.4563 32.1995 42.4563 32.3887C42.4563 32.5778 42.4185 32.7651 42.3451 32.9394C42.2717 33.1138 42.1642 33.2717 42.0289 33.4039C41.2331 34.2101 40.2844 34.8494 39.2385 35.2844C38.1925 35.7195 37.0703 35.9415 35.9375 35.9375C34.2316 35.9375 32.5641 35.4317 31.1457 34.4839C29.7273 33.5362 28.6218 32.1892 27.969 30.6131C27.3162 29.0371 27.1454 27.3029 27.4782 25.6298C27.811 23.9568 28.6325 22.4199 29.8387 21.2137C31.0449 20.0075 32.5818 19.186 34.2548 18.8532C35.9279 18.5204 37.6621 18.6912 39.2381 19.344C40.8142 19.9968 42.1612 21.1023 43.1089 22.5207C44.0567 23.9391 44.5625 25.6066 44.5625 27.3125ZM41.5078 25.875C41.1911 24.6382 40.4718 23.5419 39.4632 22.759C38.4547 21.9762 37.2142 21.5512 35.9375 21.5512C34.6608 21.5512 33.4203 21.9762 32.4118 22.759C31.4032 23.5419 30.6839 24.6382 30.3672 25.875H41.5078ZM25.1562 28.3906C25.1562 30.3922 24.3611 32.3118 22.9458 33.7271C21.5305 35.1424 19.6109 35.9375 17.6094 35.9375H5.75C5.36875 35.9375 5.00312 35.7861 4.73353 35.5165C4.46395 35.2469 4.3125 34.8812 4.3125 34.5V11.5C4.3125 11.1188 4.46395 10.7531 4.73353 10.4835C5.00312 10.214 5.36875 10.0625 5.75 10.0625H15.4531C16.7697 10.0643 18.0578 10.4468 19.162 11.1638C20.2663 11.8808 21.1397 12.9018 21.6771 14.1038C22.2144 15.3057 22.3928 16.6374 22.1908 17.9384C21.9888 19.2395 21.4149 20.4543 20.5383 21.4367C21.9067 22.013 23.0748 22.9801 23.8962 24.2171C24.7177 25.454 25.156 26.9058 25.1562 28.3906ZM7.1875 20.8438H15.4531C16.5016 20.8438 17.5071 20.4273 18.2484 19.6859C18.9898 18.9446 19.4062 17.9391 19.4062 16.8906C19.4062 15.8422 18.9898 14.8367 18.2484 14.0953C17.5071 13.354 16.5016 12.9375 15.4531 12.9375H7.1875V20.8438ZM22.2812 28.3906C22.2765 27.153 21.7828 25.9675 20.9077 25.0923C20.0325 24.2172 18.847 23.7235 17.6094 23.7188H7.1875V33.0625H17.6094C18.847 33.0578 20.0325 32.564 20.9077 31.6889C21.7828 30.8138 22.2765 29.6282 22.2812 28.3906Z" fill="white"/>
</svg>
