<svg xmlns="http://www.w3.org/2000/svg" viewBox="0 0 398.05 398.24"><defs><style>.cls-1{fill:#fff;}</style></defs><g id="Layer_2" data-name="Layer 2"><g id="Layer_1-2" data-name="Layer 1"><path class="cls-1" d="M398.05,87.32V311.18c-3.21,9.67-5.66,19.69-9.79,28.95-14.91,33.54-43.08,49.89-77.2,58.11H87.38c-2.41-.9-4.76-2-7.24-2.66-50.87-13.5-78.9-48.08-79.52-101-.76-63.72-.91-127.47,0-191.18C1.58,42.15,42.43,1.39,103.72.52c63.67-.91,127.36-.41,191-.11,26.74.13,50.75,8.36,71,26.56C383.91,43.24,391.85,64.77,398.05,87.32ZM198.56,372.84c30.53,0,61.07.36,91.6-.08,52.22-.76,81.9-30.12,82.38-82.33q.84-90.88,0-181.8c-.42-52.94-30.25-82.51-83.39-82.87q-90.06-.61-180.11,0c-53,.38-82.79,30.08-83.18,83.08q-.68,90.14,0,180.26c.35,53.84,30.13,83.22,84.19,83.69C139.55,373.05,169.05,372.84,198.56,372.84Z"/><path class="cls-1" d="M168.06,197.37c23.19,13.3,31.47,28.66,27.08,48.41-4.65,20.93-19.06,33.4-43.73,34.64-24.13,1.21-48.37.26-72.93.26-.46-3.13-1.15-5.63-1.15-8.13-.07-48.65,0-97.3,0-146.46,26.85,0,53-1.35,78.95.49,16.13,1.14,26.89,12.57,30.72,28.82C191.16,173.28,183.64,186.58,168.06,197.37ZM99.08,208v53.85c18.27,0,35.3.95,52.16-.29,14-1,22.66-9.71,23-24.46.33-14.4-6.78-24.41-21.11-26.09C135.42,208.91,117.47,208.91,99.08,208Zm-.61-19.51c18.12,0,34.62.9,51-.31,11.76-.87,18.26-9.28,18.39-21.17.13-10.76-4.33-20.5-15.56-21.91-17.55-2.21-35.4-2-53.8-2.87Z"/><path class="cls-1" d="M236.61,229.14c4.32,27.3,15.27,39.83,34.14,38.21,8.27-.71,17.69-5.67,23.65-11.64,10-10,9-11,23.92-7.7-1.78,24.75-28.93,40.13-60.55,35-29.91-4.88-45.56-32.77-40.39-71.2,4.19-31.09,27.55-49.67,58.53-46.55,29,2.92,46.46,27.36,44,63.9Zm62.55-16.22c1.94-21.42-18.38-33.85-33.45-31.71-16.94,2.4-26.92,14.6-25.41,31.71Z"/><path class="cls-1" d="M237.4,152.71V138.29h62.93v14.42Z"/></g></g></svg>