<svg width="37" height="37" viewBox="0 0 37 37" fill="none" xmlns="http://www.w3.org/2000/svg">
<path d="M13.0042 9.94373C13.0042 10.3702 12.8777 10.7871 12.6408 11.1417C12.4038 11.4963 12.0671 11.7726 11.6731 11.9358C11.2791 12.099 10.8455 12.1417 10.4272 12.0585C10.009 11.9753 9.62476 11.77 9.3232 11.4684C9.02164 11.1669 8.81628 10.7827 8.73308 10.3644C8.64988 9.94612 8.69258 9.51257 8.85579 9.11856C9.01899 8.72456 9.29536 8.3878 9.64995 8.15087C10.0045 7.91394 10.4214 7.78748 10.8479 7.78748C11.4198 7.78748 11.9682 8.01465 12.3726 8.41903C12.777 8.8234 13.0042 9.37185 13.0042 9.94373ZM36.0042 3.47498V33.6625C36.0042 34.425 35.7012 35.1562 35.1621 35.6954C34.6229 36.2346 33.8916 36.5375 33.1292 36.5375H2.94165C2.17915 36.5375 1.44789 36.2346 0.908718 35.6954C0.369551 35.1562 0.0666504 34.425 0.0666504 33.6625V3.47498C0.0666504 2.71248 0.369551 1.98121 0.908718 1.44204C1.44789 0.902876 2.17915 0.599976 2.94165 0.599976H33.1292C33.8916 0.599976 34.6229 0.902876 35.1621 1.44204C35.7012 1.98121 36.0042 2.71248 36.0042 3.47498ZM33.1292 33.6625V3.47498H2.94165V33.6625H33.1292ZM10.8479 14.2562C10.4667 14.2562 10.101 14.4077 9.83143 14.6773C9.56185 14.9468 9.4104 15.3125 9.4104 15.6937V27.1937C9.4104 27.575 9.56185 27.9406 9.83143 28.2102C10.101 28.4798 10.4667 28.6312 10.8479 28.6312C11.2291 28.6312 11.5948 28.4798 11.8644 28.2102C12.1339 27.9406 12.2854 27.575 12.2854 27.1937V15.6937C12.2854 15.3125 12.1339 14.9468 11.8644 14.6773C11.5948 14.4077 11.2291 14.2562 10.8479 14.2562ZM21.6292 14.2562C20.3351 14.2562 19.0707 14.6442 17.9995 15.3703C17.9209 15.0254 17.7178 14.7215 17.4292 14.5169C17.1406 14.3124 16.7867 14.2214 16.4352 14.2614C16.0837 14.3015 15.7593 14.4697 15.5241 14.734C15.2889 14.9982 15.1594 15.34 15.1604 15.6937V27.1937C15.1604 27.575 15.3119 27.9406 15.5814 28.2102C15.851 28.4798 16.2167 28.6312 16.5979 28.6312C16.9791 28.6312 17.3448 28.4798 17.6144 28.2102C17.8839 27.9406 18.0354 27.575 18.0354 27.1937V20.725C18.0354 19.7719 18.414 18.8578 19.088 18.1838C19.7619 17.5099 20.676 17.1312 21.6292 17.1312C22.5823 17.1312 23.4964 17.5099 24.1703 18.1838C24.8443 18.8578 25.2229 19.7719 25.2229 20.725V27.1937C25.2229 27.575 25.3743 27.9406 25.6439 28.2102C25.9135 28.4798 26.2792 28.6312 26.6604 28.6312C27.0416 28.6312 27.4073 28.4798 27.6769 28.2102C27.9465 27.9406 28.0979 27.575 28.0979 27.1937V20.725C28.0979 19.0094 27.4164 17.364 26.2032 16.1509C24.9901 14.9378 23.3448 14.2562 21.6292 14.2562Z" fill="white"/>
</svg>
