<svg width="40" height="35" viewBox="0 0 40 35" fill="none" xmlns="http://www.w3.org/2000/svg">
<path d="M39.2308 5.33165C39.1208 5.07003 38.9359 4.84681 38.6993 4.69012C38.4626 4.53344 38.1849 4.4503 37.9011 4.45119H32.4386C31.7831 3.30751 30.8731 2.33007 29.7792 1.59456C28.6852 0.85905 27.4366 0.38521 26.1302 0.209738C24.8237 0.034265 23.4943 0.161868 22.2451 0.582666C20.9958 1.00346 19.8602 1.70616 18.9261 2.63634C18.1083 3.43374 17.4581 4.38655 17.0138 5.43879C16.5694 6.49103 16.3399 7.62147 16.3386 8.76369V9.85978C9.02533 7.95509 3.04174 2.06134 2.98783 1.98947C2.79987 1.80455 2.56468 1.67489 2.30797 1.61468C2.05127 1.55446 1.78294 1.56601 1.53236 1.64806C1.28258 1.72755 1.0589 1.87303 0.884945 2.06912C0.710992 2.26521 0.593225 2.50464 0.544082 2.76212C-1.0192 11.4231 1.58627 17.227 4.04799 20.5692C5.28272 22.2592 6.78129 23.7395 8.48627 24.9535C5.73705 28.0621 1.49643 29.6793 1.46049 29.6973C1.2577 29.7725 1.0745 29.8925 0.924531 30.0483C0.774562 30.2042 0.661694 30.3919 0.594336 30.5974C0.526978 30.8029 0.506867 31.021 0.535499 31.2354C0.564132 31.4498 0.640771 31.6549 0.759707 31.8356C0.903457 32.0512 1.44252 32.752 2.75424 33.4168C4.3894 34.2254 6.54565 34.6387 9.15111 34.6387C21.8191 34.6387 32.4206 24.8817 33.4988 12.3215L38.9253 6.9129C39.1203 6.70506 39.2525 6.44625 39.3066 6.16642C39.3606 5.88659 39.3344 5.59718 39.2308 5.33165ZM31.091 10.6684C30.8405 10.9167 30.693 11.2504 30.6777 11.6027C29.941 22.9051 20.4894 31.7637 9.15111 31.7637C7.24643 31.7637 5.91674 31.5121 4.98236 31.2067C7.04877 30.0926 9.92377 28.152 11.7925 25.3668C11.901 25.1982 11.973 25.0089 12.004 24.8108C12.0349 24.6128 12.0241 24.4104 11.9722 24.2168C11.9199 24.0212 11.8274 23.8387 11.7005 23.6809C11.5737 23.5231 11.4153 23.3935 11.2355 23.3004C11.2175 23.2824 8.55815 21.8988 6.27611 18.7543C3.68861 15.1965 2.59252 10.866 3.02377 5.87072C5.86283 8.20665 11.2894 12.016 17.5425 13.0582C17.749 13.0914 17.9602 13.0797 18.1618 13.0238C18.3633 12.968 18.5505 12.8694 18.7105 12.7348C18.8669 12.5979 18.9926 12.4295 19.0793 12.2406C19.166 12.0517 19.2118 11.8465 19.2136 11.6387V8.76369C19.2163 7.44478 19.6723 6.16688 20.5052 5.14422C21.3381 4.12157 22.4972 3.41634 23.7883 3.14675C25.0794 2.87716 26.4239 3.05961 27.5964 3.66351C28.7689 4.26742 29.6982 5.25605 30.2285 6.46368C30.3431 6.72056 30.5296 6.93873 30.7656 7.0918C31.0016 7.24487 31.2769 7.32628 31.5581 7.32619H34.4331L31.091 10.6684Z" fill="white"/>
</svg>
